<svg width="306" height="133" xmlns="http://www.w3.org/2000/svg" xmlns:xlink="http://www.w3.org/1999/xlink" overflow="hidden"><defs><clipPath id="clip0"><rect x="466" y="239" width="306" height="133"/></clipPath><clipPath id="clip1"><rect x="467" y="240" width="305" height="132"/></clipPath><clipPath id="clip2"><rect x="466" y="240" width="306" height="132"/></clipPath><clipPath id="clip3"><rect x="466" y="240" width="306" height="139"/></clipPath></defs><g clip-path="url(#clip0)" transform="translate(-466 -239)"><g clip-path="url(#clip1)"><g clip-path="url(#clip2)"><g clip-path="url(#clip3)"><path d="M-2.54167 81.3333 27.9583 81.3333M22.875 81.3333 205.875 81.3333M200.792 81.3333 307.542 81.3333" stroke="#C00000" stroke-width="5.08333" fill="none" transform="matrix(-1 0 0 1.69672 772 240)"/><path d="M0 54.3917 4.06667 53.8833 8.13333 54.3917 12.2 56.9333 16.2667 58.4583 20.3333 57.4417 25.4167 54.3917M25.4167 54.3917 29.4833 59.475 33.55 63.0333 37.6167 48.8 41.6833 53.8833 46.7667 50.8333 50.8333 47.7833 54.9 50.325 58.9667 47.7833 63.0333 42.7 67.1 42.7 71.1667 39.1417 76.25 39.65 80.3167 36.0917 84.3833 43.2083 88.45 48.8 92.5167 46.7667 96.5833 42.7 101.667 39.65 105.733 35.5833 109.8 35.5833 113.867 40.6667 118.442 40.6667 122.508 43.2083 126.575 43.2083 130.642 37.6167 134.708 43.7167 139.792 45.75 143.858 48.2917 148.433 45.75 152.5 44.225 156.567 45.75 160.633 44.7333 164.7 47.275 169.275 45.75 173.342 39.65 177.408 34.5667 181.475 28.975 186.558 25.4167 190.625 21.8583 194.692 16.775 198.758 15.7583 203.333 8.64167M203.333 8.64167 207.4 0 211.467 7.11667 215.533 8.64167 219.6 5.59167 223.667 6.1 227.733 6.1 231.8 5.59167 237.392 5.08333 241.458 5.08333 245.525 6.1 249.592 9.15 254.167 5.59167 258.233 5.59167 262.3 6.1 266.367 6.1 270.433 6.1 274.5 6.1 278.567 6.1 282.633 9.15 286.7 9.15 292.292 5.08333 296.358 5.08333 300.933 5.08333 305 4.06667" stroke="#C00000" stroke-width="5.08333" stroke-miterlimit="10" fill="none" transform="matrix(-1 0 0 1.69672 772 240)"/></g></g></g></g></svg>